<?xml version="1.0" encoding="utf-8"?>
<svg width="36px" height="36px" viewBox="0 0 36 36" version="1.1" xmlns:xlink="http://www.w3.org/1999/xlink" xmlns="http://www.w3.org/2000/svg">
  <defs>
    <path d="M0 0L36 0L36 36L0 36L0 0Z" id="path_1" />
    <clipPath id="clip_1">
      <use xlink:href="#path_1" />
    </clipPath>
  </defs>
  <g id="Done 2" clip-path="url(#clip_1)">
    <path d="M0 0L36 0L36 36L0 36L0 0Z" id="Done-2" fill="none" fill-rule="evenodd" stroke="none" />
    <path d="M11.8102 29.6813L1.83297 19.704C0.661471 18.5325 0.661471 16.6328 1.83297 15.4613L2.89347 14.4008C4.06497 13.2292 5.96472 13.2292 7.13622 14.4008L14.25 21.5145L28.8637 6.90075C30.0352 5.72925 31.935 5.72925 33.1065 6.90075L34.167 7.96125C34.8945 8.68875 35.1705 9.69675 34.9942 10.6372C34.887 11.211 33.861 11.76 33.417 12.204L16.6897 28.9313C16.0162 29.6048 15.1335 30.6915 14.25 30.6915C13.3672 30.6923 12.4845 30.3548 11.8102 29.6813L11.8102 29.6813Z" id="Shape" fill="#61D596" stroke="none" />
    <path d="M14.25 30.6923C13.8353 30.6923 13.5 30.357 13.5 29.9423C13.5 29.5275 13.8353 29.1923 14.25 29.1923C14.7698 29.1923 15.2603 28.989 15.6293 28.62L33.1073 11.1428C33.321 10.9283 33.4643 10.6583 33.519 10.3613C33.5963 9.954 33.9915 9.69075 34.3942 9.76125C34.8015 9.83775 35.07 10.2292 34.9942 10.6365C34.8833 11.232 34.5975 11.7735 34.1685 12.2025L16.6898 29.6813C16.0373 30.333 15.171 30.6923 14.25 30.6923L14.25 30.6923Z" id="Shape" fill="#324561" stroke="none" />
  </g>
</svg>