<?xml version="1.0" encoding="utf-8"?>
<svg width="67px" height="67px" viewBox="0 0 67 67" version="1.1" xmlns:xlink="http://www.w3.org/1999/xlink" xmlns="http://www.w3.org/2000/svg">
  <defs>
    <path d="M0 0L67 0L67 67L0 67L0 0Z" id="path_1" />
    <clipPath id="clip_1">
      <use xlink:href="#path_1" />
    </clipPath>
  </defs>
  <g id="Github" clip-path="url(#clip_1)">
    <path d="M0 0L67 0L67 67L0 67L0 0Z" id="Github" fill="none" fill-rule="evenodd" stroke="none" />
    <path d="M33.5016 2.67999C16.4979 2.67999 2.68 16.4979 2.68 33.5016C2.68 50.5052 16.4979 64.3231 33.5016 64.3231C50.5053 64.3231 64.3231 50.5052 64.3231 33.5016C64.3231 16.4979 50.5053 2.67999 33.5016 2.67999L33.5016 2.67999ZM33.5014 5.35999C49.0561 5.35999 61.6428 17.9468 61.6428 33.5014C61.6428 33.5971 61.636 33.6913 61.635 33.7867C60.7779 33.7076 59.7876 33.6324 58.5283 33.5878C56.7477 33.5247 54.5034 33.5429 51.9588 33.6689C52.0532 33.0118 52.1193 32.3454 52.1211 31.6614C52.2508 29.152 51.4081 26.8044 50.0377 24.7308C50.3688 23.5867 50.7572 22.1312 50.8543 20.4803C50.965 18.5984 50.8025 16.5117 49.2917 15.1017L48.9044 14.7405L48.3757 14.7405C44.7802 14.7405 42.3191 16.2456 40.8142 17.4389C38.6413 16.5978 36.1979 16.0805 33.5014 16.0805C30.7896 16.0805 28.3228 16.6051 26.0604 17.4442C24.5564 16.2503 22.0932 14.7405 18.4937 14.7405L17.9676 14.7405L17.5803 15.099C16.1086 16.4656 15.973 18.495 16.0648 20.3677C16.1458 22.0191 16.5117 23.5208 16.837 24.7203C15.4433 26.8344 14.607 29.2427 14.607 31.6248C14.607 32.3104 14.6708 32.9789 14.764 33.6375C12.3442 33.5253 10.1871 33.5037 8.47461 33.5642C7.21535 33.6088 6.22494 33.6833 5.36785 33.7631C5.36705 33.6756 5.36 33.5892 5.36 33.5014C5.36 17.9468 17.9468 5.35999 33.5014 5.35999L33.5014 5.35999ZM19.2914 17.5953C21.9951 17.8515 24.0292 19.0588 24.971 19.896L25.5991 20.4508L26.3739 20.1341C28.4931 19.2615 30.8569 18.76 33.5008 18.76C36.1448 18.76 38.5092 19.264 40.4681 20.1211L41.2533 20.4665L41.8946 19.896C42.8367 19.0586 44.8742 17.8509 47.5794 17.5953C47.9391 18.1916 48.2516 19.0397 48.1762 20.3226C48.0858 21.8579 47.6751 23.5302 47.3648 24.5234L47.1632 25.1699L47.5637 25.7169C48.8897 27.525 49.5657 29.4818 49.4508 31.5509L49.4482 31.5875L49.4482 31.6242C49.4482 34.9683 48.244 37.6447 45.6792 39.6279C43.1145 41.6112 39.0657 42.8813 33.3673 42.8813C27.669 42.8813 23.6176 41.6112 21.0529 39.6279C18.4881 37.6447 17.2865 34.9683 17.2865 31.6242C17.2865 29.6614 17.9953 27.5021 19.3045 25.7169L19.6971 25.1829L19.5086 24.5469C19.1981 23.4911 18.8175 21.7807 18.7418 20.2362C18.6788 18.9516 18.9828 18.1396 19.2914 17.5953L19.2914 17.5953ZM11.9059 34.8687C12.8529 34.8808 13.9384 34.9319 15.0258 34.9865C15.1296 35.4043 15.2481 35.8154 15.3922 36.2166C10.9601 36.3101 7.64445 36.7558 5.60079 37.1379C5.51438 36.4674 5.44555 35.7914 5.4071 35.1069C6.91743 34.9636 9.04652 34.8322 11.9059 34.8687L11.9059 34.8687ZM55.0946 34.8897C57.952 34.8534 60.0803 34.9849 61.5908 35.1279C61.5524 35.8026 61.4847 36.469 61.3997 37.1301C59.283 36.7418 55.8778 36.2962 51.3309 36.2245C51.472 35.8312 51.5895 35.4272 51.6921 35.018C52.8916 34.9537 54.0619 34.9028 55.0946 34.8897L55.0946 34.8897ZM15.9627 37.5462C16.7624 39.1486 17.905 40.5794 19.415 41.747C21.4794 43.3433 24.1633 44.4587 27.4397 45.0553C27.0111 45.4957 26.6212 45.9793 26.275 46.4896L26.1938 46.4189C26.2012 46.4105 25.5277 46.7476 24.5214 46.8377C23.5151 46.9278 22.2738 46.9005 21.1738 46.9005C19.5322 46.9005 18.8092 46.1249 17.6535 44.7124C17.0136 43.8499 16.2334 43.1514 15.4759 42.6212C14.7003 42.0782 14.0386 41.695 13.2198 41.5585L13.1099 41.5402L12.9973 41.5402C12.372 41.5402 11.7668 41.5855 11.2018 42.2312C10.9193 42.5541 10.7246 43.1518 10.8511 43.6577C10.9776 44.1636 11.2976 44.4744 11.584 44.6653C13.4155 45.8863 13.7392 48.3029 14.887 50.4522C15.959 52.5882 18.2724 53.6009 20.6373 53.6009L24.1209 53.6009L24.1209 60.0368C14.6973 56.7105 7.59076 48.5148 5.80492 38.4623C7.85644 38.0759 11.2919 37.6113 15.9627 37.5462L15.9627 37.5462ZM50.7635 37.5566C55.5378 37.5975 59.0696 38.0615 61.1988 38.4544C59.4153 48.5106 52.3063 56.7096 42.8802 60.0368L42.8802 53.0643C42.8802 50.9408 42.1829 48.5993 40.9695 46.6466C40.6011 46.0537 40.1678 45.4931 39.6844 44.9898C42.787 44.3769 45.3356 43.2807 47.3191 41.747C48.8258 40.5819 49.9659 39.1554 50.7635 37.5566L50.7635 37.5566ZM31.7572 45.6935L35.5105 45.6935C36.5997 45.6935 37.7623 46.5616 38.6931 48.0595C39.6239 49.5575 40.2007 51.5691 40.2007 53.0639L40.2007 60.8347C38.0531 61.3584 35.8103 61.6408 33.5004 61.6408C31.1904 61.6408 28.9476 61.3584 26.8 60.8347L26.8 53.0639C26.8 51.6022 27.4269 49.5953 28.4201 48.0909C29.4133 46.5865 30.668 45.6935 31.7572 45.6935L31.7572 45.6935ZM16.4935 47.2769C17.6537 48.4803 19.0583 49.5802 21.1733 49.5802C22.2174 49.5802 23.5207 49.6178 24.759 49.5069C24.7634 49.5065 24.7677 49.5047 24.7721 49.5042C24.609 49.9733 24.4872 50.4452 24.3847 50.9202L20.6367 50.9202C18.984 50.9202 17.8164 50.3231 17.2787 49.2477L17.2682 49.2294L17.2604 49.2137C17.0401 48.8045 16.7509 47.9863 16.4935 47.2769L16.4935 47.2769Z" id="Shape" fill="#FFFFFF" fill-rule="evenodd" stroke="none" />
  </g>
</svg>