<?xml version="1.0" encoding="utf-8"?>
<svg width="30px" height="30px" viewBox="0 0 30 30" version="1.1" xmlns:xlink="http://www.w3.org/1999/xlink" xmlns="http://www.w3.org/2000/svg">
  <defs>
    <path d="M0 0L30 0L30 30L0 30L0 0Z" id="path_1" />
    <clipPath id="clip_1">
      <use xlink:href="#path_1" />
    </clipPath>
  </defs>
  <g id="Close" clip-path="url(#clip_1)">
    <path d="M0 0L30 0L30 30L0 30L0 0Z" id="Close" fill="none" fill-rule="evenodd" stroke="none" />
    <path d="M15 19.4194L8.44683 25.3475C8.05558 25.7388 7.56621 26.5988 7.05808 26.6763C6.29871 26.7925 5.49621 26.5575 4.91121 25.9725L4.02746 25.0888C3.05058 24.1119 3.05058 22.53 4.02746 21.5531L10.5806 15L4.02746 8.44689C3.05058 7.47002 3.05058 5.88814 4.02746 4.91127L4.91121 4.02752C5.88808 3.05064 7.46996 3.05064 8.44683 4.02752L15 10.5806L21.5531 4.02752C22.53 3.05064 24.1118 3.05064 25.0887 4.02752L25.9725 4.91127C26.5387 5.47752 26.7768 6.24752 26.6862 6.98502C26.6206 7.51939 25.7575 8.03627 25.3475 8.44689L18.7943 15L25.3475 21.5531C26.3243 22.53 26.9493 23.4869 25.9725 24.4638L25.0887 25.3475C24.6006 25.8356 23.9606 26.705 23.3212 26.705C22.6812 26.705 22.0418 26.4606 21.5537 25.9725L15 19.4194L15 19.4194Z" id="Shape" fill="#DD6666" stroke="none" />
    <path d="M23.3206 26.7056C22.9749 26.7056 22.6956 26.4263 22.6956 26.0806C22.6956 25.735 22.9749 25.4556 23.3206 25.4556C23.6543 25.4556 23.9687 25.3256 24.2056 25.0887L25.0887 24.2056C25.5756 23.7181 25.5756 22.925 25.0887 22.4375L18.0937 15.4419C17.8493 15.1975 17.8493 14.8025 18.0937 14.5581L25.0887 7.56312C25.2868 7.365 25.4099 7.11187 25.4443 6.8325C25.4868 6.49 25.8049 6.24125 26.1406 6.28875C26.4837 6.33062 26.7268 6.6425 26.6843 6.985C26.6156 7.54437 26.3693 8.04937 25.9718 8.44687L19.4193 15L25.9724 21.5531C26.9468 22.5281 26.9468 24.1144 25.9724 25.0888L25.0887 25.9725C24.6162 26.445 23.9881 26.7056 23.3206 26.7056L23.3206 26.7056Z" id="Shape" fill="#324561" stroke="none" />
    <path d="M6.96379 26.6838C6.66004 26.6838 6.39379 26.4625 6.34691 26.1525C6.29504 25.8113 6.52941 25.4925 6.87066 25.4406C7.13379 25.4006 7.37316 25.2788 7.56316 25.0888L14.2982 18.3538C14.5425 18.1094 14.9375 18.1094 15.1819 18.3538C15.4263 18.5981 15.4263 18.9931 15.1819 19.2375L8.44691 25.9731C8.06691 26.3531 7.58691 26.5969 7.05816 26.6769C7.02629 26.6813 6.99441 26.6838 6.96379 26.6838L6.96379 26.6838Z" id="Shape" fill="#324561" stroke="none" />
  </g>
</svg>