<?xml version="1.0" encoding="utf-8"?>
<svg width="64px" height="64px" viewBox="0 0 64 64" version="1.1" xmlns:xlink="http://www.w3.org/1999/xlink" xmlns="http://www.w3.org/2000/svg">
  <defs>
    <path d="M0 0L64 0L64 64L0 64L0 0Z" id="path_1" />
    <clipPath id="clip_1">
      <use xlink:href="#path_1" />
    </clipPath>
  </defs>
  <g id="React" clip-path="url(#clip_1)">
    <path d="M0 0L64 0L64 64L0 64L0 0Z" id="React" fill="none" fill-rule="evenodd" stroke="none" />
    <path d="M50.2578 1.30078C50.0056 1.34366 49.7694 1.48203 49.6094 1.70703L48.4512 3.33984C48.1312 3.79084 48.2375 4.41437 48.6875 4.73438C48.8635 4.85938 49.0656 4.91992 49.2656 4.91992C49.5786 4.91992 49.886 4.77205 50.082 4.49805L51.2402 2.86719C51.5602 2.41619 51.4559 1.79266 51.0059 1.47266C50.7799 1.31216 50.5101 1.25791 50.2578 1.30078L50.2578 1.30078ZM20.5762 5.17773C19.2889 5.13822 18.0735 5.39777 17 6.01758C15.2823 7.00926 14.1798 8.7802 13.625 10.9453C13.0702 13.1104 13.0228 15.7089 13.4062 18.6133C13.5319 19.5653 13.721 20.5613 13.9395 21.5742C12.9541 21.8913 11.9978 22.223 11.1113 22.5898C8.40432 23.71 6.17773 25.0503 4.58008 26.6133C2.98242 28.1763 2 30.0166 2 32C2 33.9834 2.98242 35.8237 4.58008 37.3867C6.17773 38.9497 8.40432 40.29 11.1113 41.4102C11.9978 41.777 12.9541 42.1087 13.9395 42.4258C13.721 43.4386 13.5319 44.4328 13.4062 45.3848C13.0228 48.2892 13.0702 50.8876 13.625 53.0527C14.1798 55.2179 15.2824 56.9888 17 57.9805C18.7177 58.9722 20.8026 59.0416 22.9551 58.4395C25.1075 57.8374 27.3815 56.5792 29.7051 54.7949C30.4664 54.2103 31.2323 53.5488 32 52.8535C32.7673 53.5484 33.5339 54.2106 34.2949 54.7949C36.6185 56.5792 38.8925 57.8374 41.0449 58.4395C43.1974 59.0416 45.2823 58.9722 47 57.9805C48.7177 56.9888 49.8202 55.2179 50.375 53.0527C50.9298 50.8876 50.9772 48.2892 50.5938 45.3848C50.4682 44.4341 50.2785 43.4392 50.0606 42.4277C51.0461 42.1106 52.0021 41.777 52.8887 41.4102C55.5957 40.29 57.8223 38.9497 59.4199 37.3867C61.0176 35.8237 62 33.9834 62 32C62 30.0166 61.0176 28.1763 59.4199 26.6133C57.8223 25.0503 55.5957 23.71 52.8887 22.5898C52.0021 22.223 51.0461 21.8894 50.0606 21.5723C50.2786 20.5606 50.4682 19.5661 50.5938 18.6152C50.9772 15.7108 50.9298 13.1124 50.375 10.9473C49.8202 8.78215 48.7177 7.01122 47 6.01953C45.2824 5.02785 43.1974 4.95845 41.0449 5.56055C38.8925 6.16265 36.6185 7.42081 34.2949 9.20508C33.5339 9.78945 32.7673 10.4516 32 11.1465C31.2323 10.4512 30.4664 9.78775 29.7051 9.20312C27.3815 7.41886 25.1075 6.1607 22.9551 5.55859C22.1479 5.3328 21.3486 5.20144 20.5762 5.17773L20.5762 5.17773ZM53.9023 5.41016C53.773 5.42088 53.6435 5.45748 53.5215 5.52148L51.75 6.44922C51.261 6.70622 51.0711 7.31278 51.3281 7.80078C51.5071 8.14278 51.8548 8.33594 52.2148 8.33594C52.3708 8.33594 52.5297 8.29966 52.6777 8.22266L54.4492 7.29297C54.9382 7.03597 55.1281 6.43136 54.8711 5.94336C54.6783 5.57586 54.2904 5.378 53.9023 5.41016L53.9023 5.41016ZM20.5293 7.17188C21.111 7.19236 21.7404 7.29733 22.416 7.48633C24.2177 7.99031 26.3033 9.1162 28.4844 10.791C29.1612 11.3108 29.8507 11.9004 30.541 12.5215C28.5625 14.4859 26.5999 16.8001 24.7188 19.3887C21.5365 19.7235 18.5518 20.2669 15.8613 20.998C15.6685 20.0895 15.5023 19.1978 15.3906 18.3516C15.0307 15.6253 15.0981 13.2557 15.5625 11.4434C16.0269 9.63107 16.8479 8.41517 18 7.75C18.7201 7.33427 19.5597 7.13773 20.5293 7.17188L20.5293 7.17188ZM43.4688 7.17383C44.4383 7.13968 45.2799 7.33622 46 7.75195C47.1521 8.41712 47.9731 9.63107 48.4375 11.4434C48.9019 13.2556 48.9673 15.6273 48.6074 18.3535C48.4957 19.1997 48.3314 20.0896 48.1387 20.998C45.4482 20.2669 42.4635 19.7235 39.2812 19.3887C37.4003 16.8001 35.4373 14.4879 33.459 12.5234C34.1493 11.9024 34.8368 11.3127 35.5137 10.793C37.6947 9.11815 39.7804 7.99031 41.582 7.48633C42.2577 7.29733 42.887 7.19432 43.4688 7.17383L43.4688 7.17383ZM55.4219 10.5098L53.4434 10.8066C52.8974 10.8886 52.5215 11.3993 52.6035 11.9453C52.6785 12.4423 53.1048 12.7969 53.5918 12.7969C53.6408 12.7969 53.6892 12.7922 53.7402 12.7852L55.7188 12.4883C56.2648 12.4063 56.6425 11.8976 56.5605 11.3516C56.4785 10.8066 55.9699 10.4378 55.4219 10.5098L55.4219 10.5098ZM32 13.8965C33.5485 15.4315 35.1029 17.1988 36.6191 19.1641C35.1099 19.0658 33.5754 19 32 19C30.4239 19 28.8887 19.0657 27.3789 19.1641C28.8955 17.1984 30.4512 15.4317 32 13.8965L32 13.8965ZM53.832 15.6055C53.283 15.5745 52.8064 15.9939 52.7754 16.5449C52.7424 17.0969 53.1648 17.5706 53.7168 17.6016L55.7129 17.7168C55.7329 17.7178 55.7515 17.7188 55.7715 17.7188C56.2965 17.7188 56.7366 17.3064 56.7676 16.7754C56.8006 16.2234 56.3801 15.7517 55.8281 15.7207L53.832 15.6055L53.832 15.6055ZM32 21C34.127 21 36.1933 21.1043 38.1855 21.2871C39.3398 22.9208 40.4621 24.6583 41.5254 26.5C42.5891 28.3424 43.5331 30.1828 44.3711 32C43.5331 33.8172 42.5891 35.6576 41.5254 37.5C40.4621 39.3417 39.3398 41.0792 38.1855 42.7129C36.1933 42.8957 34.127 43 32 43C29.873 43 27.8067 42.8957 25.8145 42.7129C24.6597 41.0786 23.5364 39.3424 22.4727 37.5C21.4089 35.6576 20.4669 33.8152 19.6289 31.998C20.4664 30.1821 21.4097 28.3411 22.4727 26.5C23.5364 24.6576 24.6597 22.9214 25.8145 21.2871C27.8067 21.1043 29.873 21 32 21L32 21ZM23.1934 21.5801C22.3533 22.8384 21.5283 24.1351 20.7402 25.5C19.9528 26.8639 19.2436 28.2263 18.5742 29.582C17.6303 27.2862 16.8774 25.0578 16.3223 22.9492C18.4261 22.3756 20.7329 21.9106 23.1934 21.5801L23.1934 21.5801ZM40.8047 21.5801C43.2659 21.9106 45.5733 22.3754 47.6777 22.9492C47.1226 25.0579 46.3697 27.2881 45.4258 29.584C44.756 28.2272 44.0459 26.865 43.2578 25.5C42.4701 24.1356 41.6444 22.838 40.8047 21.5801L40.8047 21.5801ZM14.4023 23.5254C15.1144 26.221 16.1362 29.0767 17.4375 32C16.1362 34.9234 15.1145 37.7789 14.4023 40.4746C13.5194 40.1874 12.6654 39.8868 11.877 39.5605C9.336 38.5091 7.31582 37.2653 5.97852 35.957C4.64121 34.6487 4 33.3303 4 32C4 30.6697 4.64121 29.3513 5.97852 28.043C7.31582 26.7347 9.336 25.4909 11.877 24.4395C12.6654 24.1132 13.5194 23.8126 14.4023 23.5254L14.4023 23.5254ZM49.5957 23.5254C50.4793 23.8128 51.334 24.113 52.123 24.4395C54.664 25.4909 56.6842 26.7347 58.0215 28.043C59.3588 29.3513 60 30.6697 60 32C60 33.3303 59.3588 34.6487 58.0215 35.957C56.6842 37.2653 54.664 38.5091 52.123 39.5605C51.3346 39.8868 50.4806 40.1874 49.5977 40.4746C48.8857 37.7788 47.8618 34.9236 46.5605 32C47.8615 29.0772 48.8837 26.2206 49.5957 23.5254L49.5957 23.5254ZM32 25C28.1458 25 25 28.1459 25 32C25 35.8541 28.1458 39 32 39C35.8542 39 39 35.8541 39 32C39 28.1459 35.8542 25 32 25L32 25ZM32 27C34.7733 27 37 29.2267 37 32C37 34.7733 34.7733 37 32 37C29.2267 37 27 34.7733 27 32C27 29.2267 29.2267 27 32 27L32 27ZM45.4258 34.416C46.3697 36.7119 47.1226 38.9421 47.6777 41.0508C45.5733 41.6246 43.2659 42.0894 40.8047 42.4199C41.6444 41.162 42.4701 39.8644 43.2578 38.5C44.0459 37.135 44.756 35.7728 45.4258 34.416L45.4258 34.416ZM18.5742 34.418C19.2435 35.7734 19.9529 37.1364 20.7402 38.5C21.5283 39.8649 22.3533 41.1616 23.1934 42.4199C20.7329 42.0894 18.4261 41.6244 16.3223 41.0508C16.8774 38.9422 17.6303 36.7138 18.5742 34.418L18.5742 34.418ZM15.8613 43.002C18.5518 43.7331 21.5365 44.2765 24.7188 44.6113C26.5999 47.1999 28.5625 49.5141 30.541 51.4785C29.8507 52.0996 29.1612 52.6873 28.4844 53.207C26.3033 54.8818 24.2177 56.0097 22.416 56.5137C20.6143 57.0177 19.1521 56.9152 18 56.25C16.8479 55.5848 16.0249 54.3689 15.5605 52.5566C15.0962 50.7444 15.0307 48.3727 15.3906 45.6465C15.5023 44.8002 15.6685 43.9105 15.8613 43.002L15.8613 43.002ZM48.1387 43.002C48.3314 43.9104 48.4957 44.8003 48.6074 45.6465C48.9673 48.3727 48.9019 50.7443 48.4375 52.5566C47.9731 54.3689 47.1521 55.5829 46 56.248C44.8479 56.9132 43.3857 57.0177 41.584 56.5137C39.7823 56.0097 37.6947 54.8819 35.5137 53.207C34.8368 52.6873 34.1493 52.0976 33.459 51.4766C35.4373 49.5121 37.4003 47.1999 39.2812 44.6113C42.4635 44.2765 45.4482 43.7331 48.1387 43.002L48.1387 43.002ZM8.61133 43.7168C8.06033 43.6428 7.56028 44.0282 7.48828 44.5762C7.41428 45.1242 7.79966 45.6262 8.34766 45.6992L10.3301 45.9629C10.3751 45.9689 10.4189 45.9727 10.4629 45.9727C10.9569 45.9727 11.3871 45.6055 11.4531 45.1035C11.5271 44.5555 11.1418 44.0535 10.5938 43.9805L8.61133 43.7168L8.61133 43.7168ZM27.3789 44.8359C28.8887 44.9343 30.4239 45 32 45C33.5754 45 35.1099 44.9342 36.6191 44.8359C35.1029 46.8012 33.5485 48.5685 32 50.1035C30.4512 48.5683 28.8954 46.8016 27.3789 44.8359L27.3789 44.8359ZM10.1602 48.8184L8.16211 48.8867C7.60911 48.9047 7.17631 49.366 7.19531 49.918C7.21331 50.459 7.65736 50.8848 8.19336 50.8848C8.20536 50.8848 8.21852 50.8858 8.22852 50.8848L10.2266 50.8164C10.7796 50.7984 11.2124 50.3372 11.1934 49.7852C11.1754 49.2322 10.7112 48.7814 10.1602 48.8184L10.1602 48.8184ZM11.0254 53.5117C10.896 53.4985 10.7634 53.5112 10.6309 53.5527L8.7168 54.1367C8.1888 54.2977 7.89173 54.8568 8.05273 55.3848C8.18373 55.8158 8.58077 56.0938 9.00977 56.0938C9.10577 56.0938 9.20278 56.0788 9.30078 56.0488L11.2148 55.4648C11.7428 55.3038 12.0409 54.7448 11.8789 54.2168C11.7589 53.8208 11.4134 53.5514 11.0254 53.5117L11.0254 53.5117ZM13.1445 57.5527C12.8894 57.5336 12.627 57.6101 12.418 57.7891L10.9004 59.0938C10.4814 59.4528 10.434 60.0849 10.793 60.5039C10.991 60.7349 11.2717 60.8516 11.5527 60.8516C11.7837 60.8516 12.0151 60.7714 12.2031 60.6094L13.7207 59.3066C14.1397 58.9476 14.1871 58.3155 13.8281 57.8965C13.6476 57.687 13.3997 57.5719 13.1445 57.5527L13.1445 57.5527Z" id="Shape" fill="#FFFFFF" fill-rule="evenodd" stroke="none" />
  </g>
</svg>