<?xml version="1.0" encoding="utf-8"?>
<svg width="69px" height="69px" viewBox="0 0 69 69" version="1.1" xmlns:xlink="http://www.w3.org/1999/xlink" xmlns="http://www.w3.org/2000/svg">
  <defs>
    <path d="M0 0L69 0L69 69L0 69L0 0Z" id="path_1" />
    <clipPath id="clip_1">
      <use xlink:href="#path_1" />
    </clipPath>
  </defs>
  <g id="Youtube" clip-path="url(#clip_1)">
    <path d="M0 0L69 0L69 69L0 69L0 0Z" id="Youtube" fill="none" fill-rule="evenodd" stroke="none" />
    <path d="M33.6752 12.42C24.5651 12.42 16.0102 13.11 11.4551 14.0749C8.42016 14.7649 5.79492 16.8349 5.24508 20.01C4.69524 23.3198 4.14 28.29 4.14 34.5C4.14 40.71 4.68984 45.54 5.37984 48.99C5.93508 52.0249 8.55493 54.2351 11.5899 54.9251C16.4252 55.89 24.6999 56.58 33.81 56.58C42.9202 56.58 51.1948 55.89 56.0248 54.9251C59.0651 54.2351 61.685 52.1651 62.2348 48.99C62.79 45.54 63.48 40.5752 63.6148 34.3652C63.6148 28.1552 62.9248 23.1851 62.2348 19.7351C61.685 16.7002 59.0651 14.49 56.0248 13.8C51.1948 13.11 42.78 12.42 33.6752 12.42L33.6752 12.42ZM33.6752 15.18C43.6102 15.18 51.6098 16.0048 55.4749 16.6948C57.5449 17.25 59.1999 18.63 59.4748 20.4251C60.3049 24.84 60.8548 29.5352 60.8548 34.3652C60.72 40.2949 60.03 45.125 59.4748 48.575C59.0651 51.1948 56.3051 52.025 55.4749 52.3052C50.5048 53.2702 42.2248 53.9548 33.9448 53.9548C25.6648 53.9548 17.25 53.4049 12.42 52.3052C10.35 51.75 8.69508 50.37 8.42016 48.575C7.31508 44.7099 6.9 39.605 6.9 34.5C6.9 28.1499 7.45523 23.46 8.00508 20.5652C8.42016 17.94 11.3149 17.1098 12.0049 16.8349C16.56 15.87 24.9802 15.18 33.6752 15.18L33.6752 15.18ZM26.22 23.46L26.22 45.54L45.54 34.5L26.22 23.46ZM28.98 28.1552L40.02 34.5L28.98 40.8448L28.98 28.1552Z" id="Shape" fill="#FFFFFF" fill-rule="evenodd" stroke="none" />
  </g>
</svg>